{
  "asset": {
    "generator": "Khronos glTF Blender I/O v4.2.57",
    "version": "2.0"
  },
  "scene": 0,
  "scenes": [
    {
      "name": "Scene",
      "nodes": [0]
    }
  ],
  "nodes": [
    {
      "mesh": 0,
      "name": "Plane",
      "rotation": [
        -0.1886570304632187, 0, -0.07943452894687653, 0.9788251519203186
      ],
      "translation": [1.0238354206085205, 0, 0.26627811789512634]
    }
  ],
  "materials": [
    {
      "doubleSided": true,
      "name": "Folha",
      "normalTexture": {
        "index": 0,
        "scale": 1.7999999523162842
      },
      "pbrMetallicRoughness": {
        "baseColorTexture": {
          "index": 1
        },
        "metallicFactor": 0,
        "metallicRoughnessTexture": {
          "index": 2
        }
      }
    }
  ],
  "meshes": [
    {
      "name": "Plane.003",
      "primitives": [
        {
          "attributes": {
            "POSITION": 0,
            "NORMAL": 1,
            "TEXCOORD_0": 2,
            "COLOR_0": 3
          },
          "indices": 4,
          "material": 0
        }
      ]
    }
  ],
  "textures": [
    {
      "sampler": 0,
      "source": 0
    },
    {
      "sampler": 0,
      "source": 1
    },
    {
      "sampler": 0,
      "source": 2
    }
  ],
  "images": [
    {
      "mimeType": "image/webp",
      "name": "leaves_01_2_set_01l_Normal",
      "uri": "leaves_01_2_set_01l_Normal.webp"
    },
    {
      "mimeType": "image/webp",
      "name": "leaves_01_2_set_01l",
      "uri": "leaves_01_2_set_01l.webp"
    },
    {
      "mimeType": "image/webp",
      "name": "leaves_01_2_set_01l_Gloss",
      "uri": "leaves_01_2_set_01l_Gloss.webp"
    }
  ],
  "accessors": [
    {
      "bufferView": 0,
      "componentType": 5126,
      "count": 899,
      "max": [0.21633246541023254, 0.010124288499355316, 0.07901117205619812],
      "min": [-0.2753048837184906, -0.10306701809167862, -0.45752328634262085],
      "type": "VEC3"
    },
    {
      "bufferView": 1,
      "componentType": 5126,
      "count": 899,
      "type": "VEC3"
    },
    {
      "bufferView": 2,
      "componentType": 5126,
      "count": 899,
      "type": "VEC2"
    },
    {
      "bufferView": 3,
      "componentType": 5126,
      "count": 899,
      "type": "VEC3"
    },
    {
      "bufferView": 4,
      "componentType": 5123,
      "count": 3552,
      "type": "SCALAR"
    }
  ],
  "bufferViews": [
    {
      "buffer": 0,
      "byteLength": 10788,
      "byteOffset": 0,
      "target": 34962
    },
    {
      "buffer": 0,
      "byteLength": 10788,
      "byteOffset": 10788,
      "target": 34962
    },
    {
      "buffer": 0,
      "byteLength": 7192,
      "byteOffset": 21576,
      "target": 34962
    },
    {
      "buffer": 0,
      "byteLength": 10788,
      "byteOffset": 28768,
      "target": 34962
    },
    {
      "buffer": 0,
      "byteLength": 7104,
      "byteOffset": 39556,
      "target": 34963
    }
  ],
  "samplers": [
    {
      "magFilter": 9729,
      "minFilter": 9987
    }
  ],
  "buffers": [
    {
      "byteLength": 46660,
      "uri": "folha_v4_vcolor.bin"
    }
  ]
}
